<svg xmlns="http://www.w3.org/2000/svg" version="1.1" xmlns:xlink="http://www.w3.org/1999/xlink" viewBox="0 0 700 700" style="overflow: hidden; display: block;" width="700" height="700"><defs><linearGradient id="two-3" x1="350" y1="-350" x2="350" y2="350" spreadMethod="pad" gradientUnits="userSpaceOnUse"><stop offset="0%" stop-color="#fe3a4a" stop-opacity="1"></stop><stop offset="100%" stop-color="#fec501" stop-opacity="1"></stop></linearGradient></defs><g id="two-0" transform="matrix(1 0 0 1 0 0)" opacity="1"><path transform="matrix(1 0 0 1 350 350)" id="two-311" d="M 238.373565 38.739475 C 219.308004 46.33636 183.584949 39.878324 179.957033 60.078485 C 171.905419 104.909694 304.764941 108.543763 285.021857 149.59101 C 268.161117 184.645666 192.323741 95.867372 169.290407 127.213488 C 144.483709 160.972979 258.160863 208.382253 229.527037 238.962959 C 206.131492 263.949221 168.390944 187.539876 135.18538 195.849835 C 121.436108 199.290701 119.030009 219.849515 109.134849 229.996823 C 98.941782 240.449629 89.186349 259.026938 74.646049 257.708059 C 49.30531 255.409525 49.523 196.801303 24.209877 199.386282 C 0.818348 201.775027 3.530919 242.752089 -10.54168 261.589067 C -25.855238 282.08714 -40.086586 323.946367 -64.725973 317.048783 C -94.358952 308.753285 -80.074545 256.446669 -85.790107 226.209918 C -89.623614 205.929706 -79.695941 178.313866 -94.875916 164.329906 C -103.958873 155.962585 -120.10177 159.578113 -132.222721 161.943432 C -172.12095 169.729293 -202.593534 217.665225 -243.183492 215.441773 C -262.238231 214.397985 -289.130828 203.619653 -292.218528 184.7878 C -298.61948 145.748452 -201.86505 128.985637 -216.181971 92.106529 C -228.174901 61.213813 -289.266385 97.931574 -315.576217 77.782551 C -329.996517 66.738962 -340.54857 45.114308 -337.354399 27.234062 C -333.303049 4.555517 -308.99033 -11.486906 -289.242009 -23.350029 C -262.417825 -39.463734 -206.810934 -18.78208 -197.890094 -48.775528 C -190.772731 -72.705364 -234.462534 -84.516347 -247.84085 -105.595118 C -261.434248 -127.012771 -292.046665 -154.665488 -278.475678 -176.097349 C -264.887182 -197.556861 -226.636634 -182.501115 -201.545307 -178.553561 C -174.253326 -174.259784 -142.596121 -131.117393 -122.730348 -150.317388 C -87.895724 -183.984571 -185.865473 -245.29542 -167.504473 -290.126257 C -160.733754 -306.657873 -136.349262 -309.148529 -119.573178 -315.288557 C -102.808237 -321.424506 -83.633117 -332.831533 -66.7584 -327.004267 C -39.062886 -317.440307 -39.706276 -259.008263 -10.412554 -258.384852 C 13.504049 -257.875873 17.733532 -299.583847 37.932314 -312.400717 C 54.661593 -323.016059 76.746317 -336.075585 95.46272 -329.575544 C 115.184657 -322.726291 125.260582 -297.620259 131.817339 -277.799159 C 140.483337 -251.601819 110.640693 -208.81252 134.055212 -194.212504 C 162.877905 -176.240246 204.546346 -261.909227 227.661131 -237.020346 C 256.465564 -206.005127 177.443871 -165.338811 165.85158 -124.629378 C 162.354708 -112.349175 157.134402 -96.855741 163.839619 -85.989666 C 171.508205 -73.562413 191.356557 -74.854011 204.369991 -68.228729 C 220.339255 -60.098601 235.606697 -49.565015 251.254908 -40.832897 C 276.29682 -26.858844 329.125627 -28.653487 327.964069 -0.000001 C 326.659391 32.184009 268.296063 26.816522 238.373565 38.739475 Z " fill="#fe3a4a" stroke="undefined" stroke-width="1" stroke-opacity="1" fill-opacity="1" visibility="visible" stroke-linecap="butt" stroke-linejoin="miter" stroke-miterlimit="4"></path></g></svg>