<svg width="701" height="61" viewBox="0 0 701 61" fill="none" xmlns="http://www.w3.org/2000/svg">
<g clip-path="url(#clip0_519_2)">
<path d="M118.133 60.5234L155.426 0.476562L172.486 0.476562L135.194 60.5234L118.133 60.5234Z" stroke="#D7D7D7" stroke-miterlimit="10"/>
<path d="M88.8125 60.5234L126.105 0.476562L143.166 0.476562L105.873 60.5234L88.8125 60.5234Z" stroke="#D7D7D7" stroke-miterlimit="10"/>
<path d="M30.1992 60.5234L67.492 0.476562L84.5528 0.476562L47.2696 60.5234L30.1992 60.5234Z" stroke="#D7D7D7" stroke-miterlimit="10"/>
<path d="M147.445 60.5234L184.738 0.476562L201.799 0.476562L164.516 60.5234L147.445 60.5234Z" stroke="#D7D7D7" stroke-miterlimit="10"/>
<path d="M176.766 60.5234L214.058 0.476562L231.119 0.476562L193.826 60.5234L176.766 60.5234Z" stroke="#D7D7D7" stroke-miterlimit="10"/>
<path d="M264.645 60.5234L301.937 0.476562L318.998 0.476562L281.705 60.5234L264.645 60.5234Z" stroke="#D7D7D7" stroke-miterlimit="10"/>
<path d="M235.324 60.5234L272.617 0.476562L289.678 0.476562L252.395 60.5234L235.324 60.5234Z" stroke="#D7D7D7" stroke-miterlimit="10"/>
<path d="M206.012 60.5234L243.295 0.476562L260.365 0.476562L223.073 60.5234L206.012 60.5234Z" stroke="#D7D7D7" stroke-miterlimit="10"/>
<path d="M293.957 60.5234L331.25 0.476562L348.311 0.476562L311.027 60.5234L293.957 60.5234Z" stroke="#D7D7D7" stroke-miterlimit="10"/>
<path d="M323.277 60.5234L360.57 0.476562L377.631 0.476562L340.338 60.5234L323.277 60.5234Z" stroke="#D7D7D7" stroke-miterlimit="10"/>
<path d="M411.156 60.5234L448.449 0.476562L465.51 0.476562L428.217 60.5234L411.156 60.5234Z" stroke="#D7D7D7" stroke-miterlimit="10"/>
<path d="M381.836 60.5234L419.129 0.476562L436.189 0.476562L398.906 60.5234L381.836 60.5234Z" stroke="#D7D7D7" stroke-miterlimit="10"/>
<path d="M440.469 60.5234L477.762 0.476562L494.822 0.476562L457.539 60.5234L440.469 60.5234Z" stroke="#D7D7D7" stroke-miterlimit="10"/>
<path d="M469.789 60.5234L507.082 0.476562L524.143 0.476562L486.85 60.5234L469.789 60.5234Z" stroke="#D7D7D7" stroke-miterlimit="10"/>
<path d="M59.5313 60.5234L96.8047 0.476562L113.866 0.476562L76.592 60.5234L59.5313 60.5234Z" stroke="#D7D7D7" stroke-miterlimit="10"/>
<path d="M0.859375 60.5234L38.1329 0.476562L55.1937 0.476562L17.9202 60.5234L0.859375 60.5234Z" stroke="#D7D7D7" stroke-miterlimit="10"/>
<path d="M352.523 60.5234L389.797 0.476562L406.858 0.476562L369.584 60.5234L352.523 60.5234Z" stroke="#D7D7D7" stroke-miterlimit="10"/>
</g>
<g clip-path="url(#clip1_519_2)">
<path d="M293.66 61L331.066 0H348.192L310.777 61H293.66Z" fill="#D7D7D7"/>
<path d="M264.242 61L301.657 0H318.774L281.359 61H264.242Z" fill="#D7D7D7"/>
<path d="M205.438 61L242.853 0H259.969L222.554 61H205.438Z" fill="#D7D7D7"/>
<path d="M323.07 61L360.476 0H377.602L340.187 61H323.07Z" fill="#D7D7D7"/>
<path d="M352.484 61L389.89 0H407.016L369.601 61H352.484Z" fill="#D7D7D7"/>
<path d="M440.652 61L478.058 0H495.184L457.769 61H440.652Z" fill="#D7D7D7"/>
<path d="M411.234 61L448.649 0H465.766L428.351 61H411.234Z" fill="#D7D7D7"/>
<path d="M381.816 61L419.231 0H436.358L398.943 61H381.816Z" fill="#D7D7D7"/>
<path d="M470.059 61L507.464 0H524.59L487.175 61H470.059Z" fill="#D7D7D7"/>
<path d="M499.477 61L536.882 0H554.008L516.593 61H499.477Z" fill="#D7D7D7"/>
<path d="M587.645 61L625.05 0H642.176L604.761 61H587.645Z" fill="#D7D7D7"/>
<path d="M558.227 61L595.642 0H612.758L575.343 61H558.227Z" fill="#D7D7D7"/>
<path d="M617.051 61L654.456 0H671.583L634.168 61H617.051Z" fill="#D7D7D7"/>
<path d="M646.469 61L683.874 0H701.001L663.585 61H646.469Z" fill="#D7D7D7"/>
<path d="M234.855 61L272.251 0H289.368L251.972 61H234.855Z" fill="#D7D7D7"/>
<path d="M176 61L213.396 0H230.512L193.117 61H176Z" fill="#D7D7D7"/>
<path d="M528.809 61L566.204 0H583.331L545.935 61H528.809Z" fill="#D7D7D7"/>
</g>
<defs>
<clipPath id="clip0_519_2">
<rect width="525" height="61" fill="white"/>
</clipPath>
<clipPath id="clip1_519_2">
<rect width="525" height="61" fill="white" transform="translate(176)"/>
</clipPath>
</defs>
</svg>
