<svg width="100" height="100" viewBox="0 0 100 100" fill="none" xmlns="http://www.w3.org/2000/svg">
<g clip-path="url(#clip0_440_152)">
<path d="M100 52.1221V48.8855H66.6565V35.7252L73.4046 28.9771L71.1145 26.6565L64.458 33.313H52.2443V0H48.8855V33.313H35.5725L28.855 26.5649L26.5344 28.8855L33.2214 35.542V48.8855H0V52.1221H33.3435V64.3359L26.6565 71.1145L28.9771 73.4046L35.7252 66.6565H48.8855V100H52.1527V66.6565H64.3664L71.0229 73.3435L73.313 71.0229L66.5649 64.2748V52.0611L100 52.1221ZM63.3588 48.8855H53.4962L63.4198 38.9618L63.3588 48.8855ZM61.1603 36.6718L52 45.8321V36.6718H61.1603ZM48.9466 36.6718V46.5954L39.0229 36.6718H48.9466ZM36.7328 38.9008L46.8092 48.9771H36.7328V38.9008ZM36.7328 52.2137H45.8931L36.7328 61.374V52.2137ZM39.1145 63.5115L48.8855 53.4046V63.3282L39.1145 63.5115ZM52.3053 63.5115V54.3511L61.4656 63.5115H52.3053ZM63.5725 61.1298L54.5038 52.1221H63.4198L63.5725 61.1298Z" fill="#222222"/>
</g>
<defs>
<clipPath id="clip0_440_152">
<rect width="100" height="100" fill="white"/>
</clipPath>
</defs>
</svg>
