<svg width="525" height="61" viewBox="0 0 525 61" fill="none" xmlns="http://www.w3.org/2000/svg">
<g clip-path="url(#clip0_440_70)">
<path d="M117.66 61L155.066 0H172.192L134.777 61H117.66Z" fill="#D7D7D7"/>
<path d="M88.2422 61L125.657 0H142.774L105.359 61H88.2422Z" fill="#D7D7D7"/>
<path d="M29.4375 61L66.8525 0H83.9693L46.5542 61H29.4375Z" fill="#D7D7D7"/>
<path d="M147.068 61L184.474 0H201.6L164.185 61H147.068Z" fill="#D7D7D7"/>
<path d="M176.486 61L213.892 0H231.018L193.603 61H176.486Z" fill="#D7D7D7"/>
<path d="M264.652 61L302.058 0H319.184L281.769 61H264.652Z" fill="#D7D7D7"/>
<path d="M235.234 61L272.649 0H289.766L252.351 61H235.234Z" fill="#D7D7D7"/>
<path d="M205.816 61L243.231 0H260.358L222.943 61H205.816Z" fill="#D7D7D7"/>
<path d="M294.059 61L331.464 0H348.59L311.175 61H294.059Z" fill="#D7D7D7"/>
<path d="M323.477 61L360.882 0H378.008L340.593 61H323.477Z" fill="#D7D7D7"/>
<path d="M411.645 61L449.05 0H466.176L428.761 61H411.645Z" fill="#D7D7D7"/>
<path d="M382.227 61L419.642 0H436.758L399.343 61H382.227Z" fill="#D7D7D7"/>
<path d="M441.051 61L478.456 0H495.583L458.168 61H441.051Z" fill="#D7D7D7"/>
<path d="M470.469 61L507.874 0H525.001L487.585 61H470.469Z" fill="#D7D7D7"/>
<path d="M58.8535 61L96.2492 0H113.366L75.9702 61H58.8535Z" fill="#D7D7D7"/>
<path d="M0 61L37.3957 0H54.5124L17.1167 61H0Z" fill="#D7D7D7"/>
<path d="M352.809 61L390.204 0H407.331L369.935 61H352.809Z" fill="#D7D7D7"/>
</g>
<defs>
<clipPath id="clip0_440_70">
<rect width="525" height="61" fill="white"/>
</clipPath>
</defs>
</svg>
