<svg width="32" height="32" viewBox="0 0 32 32" fill="none" xmlns="http://www.w3.org/2000/svg">
<path d="M2.07336 31.2393C1.39159 31.2393 0.83896 30.6867 0.838962 30.0049L0.838902 13.4205C0.838902 12.7387 1.39159 12.186 2.0733 12.1861L18.6578 12.1861C19.3396 12.1861 19.8922 12.7387 19.8922 13.4205L19.8922 30.005C19.8922 30.6867 19.3395 31.2394 18.6578 31.2394L2.07336 31.2393ZM22.1493 11.1634C21.4675 11.1634 20.9149 10.6107 20.9149 9.92896L20.9149 2.07313C20.9149 1.39136 21.4676 0.838672 22.1493 0.83873L30.0051 0.83873C30.6869 0.83873 31.2395 1.39136 31.2395 2.07313L31.2395 9.92896C31.2395 10.6107 30.6868 11.1634 30.0051 11.1634H22.1493Z" fill="#222222"/>
</svg>
