<svg width="2668" height="1905" viewBox="0 0 2668 1905" fill="none" xmlns="http://www.w3.org/2000/svg">
<g clip-path="url(#clip0_484_2)">
<path d="M1676.73 447.194L1774.06 615.761C1774.06 615.761 1786.44 637.214 1864.42 592.193L2330.74 322.965C2330.74 322.965 2408.71 277.945 2421.1 299.397L2564.94 548.534C2564.94 548.534 2577.32 569.986 2499.35 615.007L1996.42 905.37C1996.42 905.37 1918.45 950.39 1906.06 928.937L1773.85 699.948C1773.85 699.948 1761.47 678.495 1683.49 723.515L1291.65 949.743C1291.65 949.743 1213.68 994.764 1226.06 1016.22L1355.56 1240.52C1355.56 1240.52 1367.95 1261.97 1289.97 1306.99L858.553 1556.07C858.553 1556.07 780.576 1601.09 768.19 1579.64L638.689 1355.34C638.689 1355.34 626.303 1333.88 548.326 1378.9L302.069 1521.08C302.069 1521.08 224.091 1566.1 211.706 1544.65L102.752 1355.93C102.752 1355.93 90.3661 1334.48 168.343 1289.46L451.64 1125.9C451.64 1125.9 529.617 1080.88 542.003 1102.33L645.003 1280.73C645.003 1280.73 657.389 1302.19 735.366 1257.17L1091.87 1051.34C1091.87 1051.34 1169.85 1006.32 1157.46 984.865L1054.46 806.464C1054.46 806.464 1042.08 785.012 1120.05 739.991L1586.37 470.762C1586.37 470.762 1664.35 425.741 1676.73 447.194Z" fill="white"/>
</g>
<defs>
<clipPath id="clip0_484_2">
<rect width="630.951" height="2716.1" fill="white" transform="translate(2352.21) rotate(60)"/>
</clipPath>
</defs>
</svg>
