<svg width="44" height="44" viewBox="0 0 44 44" fill="none" xmlns="http://www.w3.org/2000/svg">
<path d="M36.5115 29.4886C35.3087 30.6913 33.3584 30.6913 32.1557 29.4886L26.8456 24.1782C25.6426 22.9755 25.6426 21.0254 26.8456 19.8224L32.1557 14.5123C33.3584 13.3095 35.3087 13.3095 36.5115 14.5123L41.8218 19.8224C43.0246 21.0254 43.0246 22.9755 41.8218 24.1782L36.5115 29.4886ZM11.8435 29.4886C10.6408 30.6913 8.69049 30.6913 7.48753 29.4886L2.17761 24.1782C0.974651 22.9755 0.974651 21.0254 2.17761 19.8224L7.48775 14.5123C8.69049 13.3095 10.6408 13.3095 11.8435 14.5123L17.1537 19.8224C18.3566 21.0254 18.3566 22.9755 17.1537 24.1782L11.8435 29.4886ZM24.1776 41.8224C22.9747 43.0254 21.0246 43.0254 19.8216 41.8224L14.5115 36.5123C13.3087 35.3095 13.3087 33.3592 14.5115 32.1565L19.8218 26.8464C21.0246 25.6434 22.9747 25.6434 24.1776 26.8464L29.4878 32.1565C30.6905 33.3592 30.6905 35.3095 29.4878 36.5123L24.1776 41.8224ZM24.1776 17.1545C22.9747 18.3574 21.0246 18.3574 19.8216 17.1545L14.5115 11.8443C13.3087 10.6414 13.3087 8.6913 14.5115 7.48834L19.8218 2.17842C21.0246 0.975682 22.9747 0.975682 24.1776 2.17842L29.4878 7.48878C30.6905 8.69152 30.6905 10.6416 29.4878 11.8446L24.1776 17.1545Z" fill="#141DEA"/>
</svg>
