<svg width="701" height="61" viewBox="0 0 701 61" fill="none" xmlns="http://www.w3.org/2000/svg">
<g clip-path="url(#clip0_440_222)">
<path d="M118.135 60.5234L155.428 0.476562L172.488 0.476562L135.196 60.5234L118.135 60.5234Z" stroke="#141DEA" stroke-miterlimit="10"/>
<path d="M88.8125 60.5234L126.105 0.476562L143.166 0.476562L105.873 60.5234L88.8125 60.5234Z" stroke="#141DEA" stroke-miterlimit="10"/>
<path d="M30.1992 60.5234L67.492 0.476562L84.5528 0.476562L47.2696 60.5234L30.1992 60.5234Z" stroke="#141DEA" stroke-miterlimit="10"/>
<path d="M147.445 60.5234L184.738 0.476562L201.799 0.476562L164.516 60.5234L147.445 60.5234Z" stroke="#141DEA" stroke-miterlimit="10"/>
<path d="M176.768 60.5234L214.06 0.476562L231.121 0.476562L193.828 60.5234L176.768 60.5234Z" stroke="#141DEA" stroke-miterlimit="10"/>
<path d="M264.645 60.5234L301.937 0.476562L318.998 0.476562L281.705 60.5234L264.645 60.5234Z" stroke="#141DEA" stroke-miterlimit="10"/>
<path d="M235.322 60.5234L272.615 0.476562L289.676 0.476562L252.393 60.5234L235.322 60.5234Z" stroke="#141DEA" stroke-miterlimit="10"/>
<path d="M206.012 60.5234L243.295 0.476562L260.365 0.476562L223.073 60.5234L206.012 60.5234Z" stroke="#141DEA" stroke-miterlimit="10"/>
<path d="M293.957 60.5234L331.25 0.476562L348.311 0.476562L311.027 60.5234L293.957 60.5234Z" stroke="#141DEA" stroke-miterlimit="10"/>
<path d="M323.277 60.5234L360.57 0.476562L377.631 0.476562L340.338 60.5234L323.277 60.5234Z" stroke="#141DEA" stroke-miterlimit="10"/>
<path d="M411.156 60.5234L448.449 0.476562L465.51 0.476562L428.217 60.5234L411.156 60.5234Z" stroke="#141DEA" stroke-miterlimit="10"/>
<path d="M381.834 60.5234L419.127 0.476562L436.188 0.476562L398.904 60.5234L381.834 60.5234Z" stroke="#141DEA" stroke-miterlimit="10"/>
<path d="M440.467 60.5234L477.76 0.476562L494.82 0.476562L457.537 60.5234L440.467 60.5234Z" stroke="#141DEA" stroke-miterlimit="10"/>
<path d="M469.789 60.5234L507.082 0.476562L524.143 0.476562L486.85 60.5234L469.789 60.5234Z" stroke="#141DEA" stroke-miterlimit="10"/>
<path d="M59.5293 60.5234L96.8028 0.476562L113.864 0.476562L76.5901 60.5234L59.5293 60.5234Z" stroke="#141DEA" stroke-miterlimit="10"/>
<path d="M0.857422 60.5234L38.1309 0.476562L55.1917 0.476562L17.9182 60.5234L0.857422 60.5234Z" stroke="#141DEA" stroke-miterlimit="10"/>
<path d="M352.521 60.5234L389.795 0.476562L406.856 0.476562L369.582 60.5234L352.521 60.5234Z" stroke="#141DEA" stroke-miterlimit="10"/>
</g>
<g clip-path="url(#clip1_440_222)">
<path d="M293.66 61L331.066 0H348.192L310.777 61H293.66Z" fill="#141DEA"/>
<path d="M264.242 61L301.657 0H318.774L281.359 61H264.242Z" fill="#141DEA"/>
<path d="M205.438 61L242.853 0H259.969L222.554 61H205.438Z" fill="#141DEA"/>
<path d="M323.068 61L360.474 0H377.6L340.185 61H323.068Z" fill="#141DEA"/>
<path d="M352.486 61L389.892 0H407.018L369.603 61H352.486Z" fill="#141DEA"/>
<path d="M440.652 61L478.058 0H495.184L457.769 61H440.652Z" fill="#141DEA"/>
<path d="M411.234 61L448.649 0H465.766L428.351 61H411.234Z" fill="#141DEA"/>
<path d="M381.816 61L419.231 0H436.358L398.943 61H381.816Z" fill="#141DEA"/>
<path d="M470.059 61L507.464 0H524.59L487.175 61H470.059Z" fill="#141DEA"/>
<path d="M499.477 61L536.882 0H554.008L516.593 61H499.477Z" fill="#141DEA"/>
<path d="M587.643 61L625.048 0H642.174L604.759 61H587.643Z" fill="#141DEA"/>
<path d="M558.225 61L595.64 0H612.756L575.341 61H558.225Z" fill="#141DEA"/>
<path d="M617.051 61L654.456 0H671.583L634.168 61H617.051Z" fill="#141DEA"/>
<path d="M646.469 61L683.874 0H701.001L663.585 61H646.469Z" fill="#141DEA"/>
<path d="M234.854 61L272.249 0H289.366L251.97 61H234.854Z" fill="#141DEA"/>
<path d="M176 61L213.396 0H230.512L193.117 61H176Z" fill="#141DEA"/>
<path d="M528.809 61L566.204 0H583.331L545.935 61H528.809Z" fill="#141DEA"/>
</g>
<defs>
<clipPath id="clip0_440_222">
<rect width="525" height="61" fill="white"/>
</clipPath>
<clipPath id="clip1_440_222">
<rect width="525" height="61" fill="white" transform="translate(176)"/>
</clipPath>
</defs>
</svg>
